<?xml version="1.0" encoding="UTF-8" standalone="no"?>
<!-- Created with Inkscape (http://www.inkscape.org/) -->

<svg
   width="210mm"
   height="297mm"
   viewBox="0 0 210 297"
   version="1.1"
   id="svg1"
   xml:space="preserve"
   inkscape:export-filename="logo.vika.svg"
   inkscape:export-xdpi="96"
   inkscape:export-ydpi="96"
   xmlns:inkscape="http://www.inkscape.org/namespaces/inkscape"
   xmlns:sodipodi="http://sodipodi.sourceforge.net/DTD/sodipodi-0.dtd"
   xmlns="http://www.w3.org/2000/svg"
   xmlns:svg="http://www.w3.org/2000/svg"><sodipodi:namedview
     id="namedview1"
     pagecolor="#ffffff"
     bordercolor="#000000"
     borderopacity="0.25"
     inkscape:showpageshadow="2"
     inkscape:pageopacity="0.0"
     inkscape:pagecheckerboard="0"
     inkscape:deskcolor="#d1d1d1"
     inkscape:document-units="mm" /><defs
     id="defs1" /><g
     inkscape:label="Capa 1"
     inkscape:groupmode="layer"
     id="layer1"><g
       id="g1"
       transform="matrix(6.7253952,0,0,6.7253952,-204.28147,-97.826779)"
       style="fill:#441400;fill-opacity:1"><path
         style="fill:#441400;fill-opacity:1"
         d="m 32.559943,57.891428 c -0.67569,-0.33671 -1.130008,-0.811983 -1.452559,-1.51956 -0.19642,-0.430882 -0.214637,-0.882529 -0.217003,-5.379861 -0.0029,-5.546826 -0.09278,-5.096837 0.944696,-4.730795 0.70873,0.250054 1.227173,0.677193 1.607738,1.324594 0.323271,0.549935 0.326494,0.5761 0.384798,3.123594 l 0.0588,2.569013 2.079146,-1.892856 c 2.245534,-2.044335 3.160738,-2.618525 1.184529,-0.743161 l -1.204844,1.143361 1.763449,3.175 1.76345,3.175 -1.01363,0.03418 c -1.957703,0.06602 -2.552647,-0.361766 -3.818553,-2.745655 l -0.808146,-1.52186 -0.0021,2.146065 -0.0021,2.146065 h -0.329689 c -0.181329,0 -0.603421,-0.136406 -0.937981,-0.303125 z m 7.293073,0.17218 c 0.262799,-0.65257 5.418104,-11.941214 5.485271,-12.011177 0.04693,-0.04888 1.372527,2.638532 2.945769,5.972037 1.573242,3.333505 2.825411,6.095947 2.782598,6.138759 -0.145424,0.145424 -1.552748,-0.173876 -2.253633,-0.511314 -0.400463,-0.192802 -1.005509,-0.639669 -1.419644,-1.048503 -0.585802,-0.578303 -0.844557,-0.968963 -1.373854,-2.074201 -0.379463,-0.792364 -0.78474,-1.466024 -0.969311,-1.611207 -0.756458,-0.595031 -1.842523,-0.557814 -2.485173,0.08516 -0.192671,0.192768 -0.779486,1.326564 -1.41278,2.729656 -0.595773,1.319963 -1.146601,2.421059 -1.224062,2.44688 -0.08155,0.02718 -0.1132,-0.02168 -0.07518,-0.11609 z m 13.728317,-0.440919 c -1.103632,-0.590108 -1.150439,-2.308386 -0.08065,-2.960674 1.19647,-0.729531 2.771226,0.249481 2.630071,1.635092 -0.1252,1.228999 -1.445832,1.915667 -2.549421,1.325582 z M 42.702022,45.259636 c -0.584197,-0.28918 -0.878113,-0.763014 -0.878113,-1.415643 0,-1.015126 0.889679,-1.7508 1.909039,-1.57858 1.499632,0.253361 1.786266,2.373778 0.405616,3.000613 -0.625835,0.284139 -0.851649,0.283135 -1.436542,-0.0064 z m 4.016009,0.116947 c -1.444823,-0.448253 -1.446578,-2.584246 -0.0025,-3.060829 1.40561,-0.463893 2.691087,1.078105 1.933939,2.319864 -0.402952,0.660859 -1.201803,0.967328 -1.931423,0.740965 z M 39.379107,35.70497 c 0.0321,-0.911642 0.0505,-0.972456 0.30521,-1.008564 0.386743,-0.05483 0.629484,0.194468 0.601179,0.617406 -0.01331,0.198968 0.01579,0.507968 0.06468,0.686667 0.118562,0.433375 -0.09718,0.67463 -0.603289,0.67463 h -0.401931 z m 0.779396,0.513067 c 0.03923,-0.27746 -0.136664,-0.478374 -0.421862,-0.481868 -0.09048,-0.0011 -0.146991,0.159585 -0.146991,0.417952 0,0.368038 0.0326,0.415123 0.264583,0.382176 0.175342,-0.0249 0.27797,-0.132249 0.30427,-0.31826 z m -0.09973,-0.776153 c 0.1944,-0.234237 0.06578,-0.530664 -0.230251,-0.530664 -0.187023,0 -0.238876,0.07658 -0.238876,0.352778 0,0.385979 0.225471,0.471474 0.469127,0.177886 z m 0.760525,0.906041 c 0.09974,-0.64692 0.433684,-1.694048 0.514488,-1.613244 0.128218,0.128218 0.575476,1.940428 0.478902,1.940428 -0.04979,0 -0.124117,-0.105833 -0.165172,-0.235185 -0.103256,-0.325333 -0.573297,-0.30689 -0.749273,0.0294 -0.126918,0.242539 -0.133496,0.232424 -0.07894,-0.121397 z m 0.610179,-0.81409 c -0.111097,-0.485495 -0.136486,-0.517923 -0.20715,-0.264583 -0.154214,0.552881 -0.116986,0.817894 0.114894,0.817894 0.200362,0 0.208164,-0.04679 0.09226,-0.553311 z m 0.943194,1.062879 c -0.04312,-0.04312 -0.0784,-0.133076 -0.0784,-0.199907 0,-0.07273 0.05665,-0.06487 0.141112,0.0196 0.196691,0.196692 0.525829,0.17617 0.607978,-0.03791 0.04154,-0.108254 -0.09669,-0.362086 -0.349709,-0.642142 -0.432914,-0.479184 -0.478071,-0.772153 -0.150781,-0.978237 0.276103,-0.173853 0.576741,-0.01499 0.560908,0.296401 -0.01013,0.199173 -0.02749,0.215268 -0.06742,0.06249 -0.07247,-0.277314 -0.506903,-0.270974 -0.506903,0.0074 0,0.117251 0.15875,0.365277 0.352777,0.551167 0.375092,0.35936 0.441482,0.628611 0.211667,0.858426 -0.152107,0.152107 -0.593465,0.190486 -0.721234,0.06272 z m 1.332716,-0.855406 c 0,-0.51359 0.05292,-0.966505 0.117592,-1.006477 0.0749,-0.04629 0.117593,0.292761 0.117593,0.933801 0,0.59259 -0.04836,1.006477 -0.117593,1.006477 -0.06852,0 -0.117592,-0.389662 -0.117592,-0.933801 z m 0.827285,0.706347 c -0.133326,-0.249122 -0.158791,-0.97464 -0.04863,-1.38555 0.07939,-0.296146 0.403099,-0.437391 0.750049,-0.327274 0.236415,0.07503 0.337333,0.529167 0.117593,0.529167 -0.06468,0 -0.117593,-0.07937 -0.117593,-0.176389 0,-0.110597 -0.111656,-0.176389 -0.299354,-0.176389 -0.294612,0 -0.298804,0.01257 -0.264583,0.79375 l 0.03477,0.79375 0.381625,-0.01728 c 0.209895,-0.0095 0.352292,0.03018 0.31644,0.0882 -0.124336,0.201179 -0.743835,0.114351 -0.870317,-0.121981 z m 1.367776,0.149059 c -0.04312,-0.04312 -0.0784,-0.133076 -0.0784,-0.199907 0,-0.07273 0.05665,-0.06487 0.141111,0.0196 0.196692,0.196692 0.525829,0.17617 0.607978,-0.03791 0.04154,-0.108254 -0.09669,-0.362086 -0.349708,-0.642142 -0.432914,-0.479184 -0.478071,-0.772153 -0.150781,-0.978237 0.276102,-0.173853 0.57674,-0.01499 0.560907,0.296401 -0.01013,0.199173 -0.02749,0.215268 -0.06742,0.06249 -0.07247,-0.277314 -0.506904,-0.270974 -0.506904,0.0074 0,0.117251 0.15875,0.365277 0.352778,0.551167 0.375092,0.35936 0.441482,0.628611 0.211667,0.858426 -0.152107,0.152107 -0.593465,0.190486 -0.721235,0.06272 z m 1.279534,-0.127392 c -0.06282,-0.165 -0.04899,-0.176653 0.06973,-0.0588 0.205812,0.2043 0.564678,0.183773 0.649453,-0.03715 0.04352,-0.113411 -0.06712,-0.32796 -0.288046,-0.558565 -0.469909,-0.4905 -0.54615,-0.931481 -0.185004,-1.070066 0.314249,-0.120589 0.630529,0.04167 0.626454,0.321389 -0.0035,0.238403 -0.01485,0.242022 -0.159955,0.05087 -0.08592,-0.113183 -0.242985,-0.205787 -0.349038,-0.205787 -0.321114,0 -0.217414,0.376475 0.229873,0.834538 0.365518,0.374324 0.404725,0.466458 0.289844,0.681115 -0.168175,0.314237 -0.768854,0.343104 -0.883315,0.04245 z M 41.02618,27.385294 c -0.255051,-0.549745 -1.555734,-3.314684 -2.890407,-6.144308 -1.334673,-2.829625 -2.426679,-5.178962 -2.426679,-5.22075 0,-0.04179 0.495216,-0.04643 1.10048,-0.01032 1.265943,0.07553 2.032551,0.386541 2.629993,1.06699 0.196852,0.224202 0.724801,1.167249 1.173221,2.09566 0.913042,1.890369 1.246045,2.271025 2.098558,2.398867 0.696881,0.104504 1.488647,-0.190518 1.861517,-0.693626 0.151504,-0.204422 0.712659,-1.350635 1.247009,-2.54714 0.953445,-2.134928 1.178111,-2.562151 1.178111,-2.240283 0,0.137905 -4.941566,11.214118 -5.353915,12.000468 -0.150472,0.28695 -0.165251,0.270074 -0.617888,-0.705556 z m 8.852822,0.664063 C 49.18514,27.725558 48.501769,27.010199 48.276391,26.37173 48.155546,26.02939 48.11528,25.136901 48.115208,22.799183 l -9.5e-5,-3.116203 0.411574,0.04051 c 1.017906,0.100183 1.97275,0.854728 2.346822,1.854525 0.219237,0.585962 0.240215,0.908649 0.240215,3.695027 v 3.052996 l -0.32338,-0.0011 c -0.177859,-6.31e-4 -0.587963,-0.124619 -0.911342,-0.275529 z M 48.797659,18.10764 c -1.444674,-0.907729 -0.899498,-2.951096 0.787361,-2.951096 1.240468,0 1.999582,1.177702 1.466018,2.274405 -0.392415,0.806582 -1.511705,1.142705 -2.253379,0.676691 z"
         id="path8" /><path
         style="fill:#441400;fill-opacity:1"
         d="m 32.843069,58.021907 c -0.664052,-0.236706 -1.266331,-0.772083 -1.601966,-1.424018 l -0.294509,-0.57205 -0.03306,-4.971661 c -0.02761,-4.151216 -0.0064,-4.971662 0.128301,-4.971662 0.371297,0 1.296009,0.354558 1.671333,0.640831 0.222007,0.169334 0.55035,0.55744 0.729651,0.862459 0.323339,0.550052 0.326482,0.575603 0.384798,3.128727 l 0.0588,2.574146 2.087986,-1.897989 c 1.148393,-1.043894 2.153809,-1.896762 2.234259,-1.895263 0.136859,0.0025 -0.05331,0.195638 -1.652747,1.678151 l -0.623095,0.577543 1.764311,3.192318 1.764311,3.192318 -0.964827,0.03551 c -0.530655,0.01953 -1.200068,-0.02993 -1.487584,-0.109913 -0.811758,-0.225812 -1.566363,-1.076162 -2.438424,-2.747814 l -0.736143,-1.411112 -0.0034,2.146065 -0.0034,2.146065 -0.264583,-0.0052 c -0.145521,-0.0028 -0.469504,-0.07821 -0.719961,-0.167485 z m 7.01844,0.02566 c 0.342723,-0.814687 5.418257,-11.927596 5.476835,-11.991558 0.06095,-0.06656 5.399757,11.063536 5.723821,11.932762 0.0619,0.166029 0.01181,0.205517 -0.25924,0.204391 -0.51141,-0.0021 -1.439096,-0.279004 -2.157366,-0.643893 -1.050902,-0.53387 -1.844688,-1.451155 -2.607045,-3.012653 -0.742172,-1.520155 -1.124358,-1.931899 -1.901372,-2.048419 -0.531262,-0.07967 -1.22685,0.128847 -1.621621,0.486109 -0.109417,0.09902 -0.715184,1.314087 -1.346148,2.700145 -0.630965,1.386059 -1.197269,2.520107 -1.258455,2.520107 -0.06119,0 -0.08342,-0.06615 -0.04941,-0.146991 z M 53.641964,57.62006 c -1.185369,-0.545723 -1.219346,-2.395032 -0.0548,-2.9825 1.256217,-0.63371 2.682411,0.296802 2.543586,1.659547 -0.0628,0.616433 -0.364793,1.06087 -0.909649,1.338699 -0.513795,0.26199 -0.986096,0.257281 -1.579141,-0.01575 z M 42.936622,45.370664 c -0.906505,-0.266661 -1.390912,-1.45791 -0.936193,-2.302273 0.215291,-0.399771 0.985528,-0.868766 1.418709,-0.863848 0.445405,0.0051 1.209816,0.44625 1.395584,0.805485 0.233706,0.451939 0.236383,1.219343 0.0058,1.665226 -0.29382,0.568184 -1.190816,0.899294 -1.883908,0.69541 z m 3.910064,0.03864 c -0.441822,-0.0658 -1.094653,-0.741451 -1.185789,-1.227248 -0.158602,-0.845424 0.3277,-1.654034 1.12364,-1.868358 1.268683,-0.341621 2.388379,0.818247 1.981135,2.052211 -0.15266,0.462564 -0.728535,1.01105 -1.061538,1.01105 -0.1191,0 -0.287019,0.01826 -0.373154,0.04057 -0.08613,0.02231 -0.304067,0.01861 -0.484294,-0.0082 z m -7.492221,-9.678628 c 0,-1.043105 0.111808,-1.202187 0.667115,-0.949172 0.251929,0.114787 0.290523,0.196389 0.243675,0.515227 -0.03062,0.208361 -0.0045,0.491208 0.05804,0.628548 0.184466,0.405121 -0.07361,0.749828 -0.561392,0.749828 h -0.407436 z m 0.764352,0.415264 c 0,-0.276314 -0.05735,-0.360922 -0.264584,-0.390354 -0.232796,-0.03306 -0.264583,0.01384 -0.264583,0.390354 0,0.37652 0.03179,0.423417 0.264583,0.390355 0.207236,-0.02943 0.264584,-0.11404 0.264584,-0.390355 z m -3.34e-4,-0.763299 c 0.09558,-0.301144 -0.01299,-0.471423 -0.300588,-0.471423 -0.175211,0 -0.228245,0.08197 -0.228245,0.352778 0,0.270282 0.05314,0.352778 0.227261,0.352778 0.124993,0 0.260701,-0.10536 0.301572,-0.234133 z m 0.657067,1.23367 c -0.0085,-0.167882 0.430511,-1.831997 0.502193,-1.90368 0.07211,-0.07211 0.395827,0.986846 0.485919,1.589533 0.05252,0.351371 0.04295,0.382487 -0.05141,0.167156 -0.07352,-0.167765 -0.218336,-0.264583 -0.395749,-0.264583 -0.173961,0 -0.32807,0.100084 -0.407405,0.264583 -0.07018,0.145521 -0.130278,0.211667 -0.133547,0.146991 z m 0.739131,-0.852547 c -0.180874,-0.744882 -0.230002,-0.774763 -0.35753,-0.217462 -0.120347,0.525914 -0.116037,0.540842 0.156146,0.540842 0.245995,0 0.270394,-0.03918 0.201384,-0.32338 z m 0.857994,0.832948 c -0.04312,-0.04312 -0.0784,-0.133076 -0.0784,-0.199907 0,-0.07273 0.05665,-0.06487 0.141112,0.0196 0.196691,0.196692 0.525829,0.17617 0.607978,-0.03791 0.04154,-0.108254 -0.09669,-0.362086 -0.349709,-0.642142 -0.432914,-0.479184 -0.478071,-0.772153 -0.150781,-0.978237 0.274357,-0.172754 0.575753,-0.01522 0.567095,0.296401 l -0.0075,0.268274 -0.106349,-0.264583 c -0.122735,-0.305347 -0.262151,-0.334669 -0.459666,-0.09668 -0.112042,0.135002 -0.05725,0.258776 0.279583,0.631614 0.442985,0.490331 0.508038,0.710634 0.277821,0.940851 -0.152107,0.152107 -0.593465,0.190486 -0.721234,0.06272 z m 1.332716,-0.862346 c 0,-0.548765 0.049,-0.94074 0.117592,-0.94074 0.0686,0 0.117593,0.391975 0.117593,0.94074 0,0.548766 -0.049,0.940741 -0.117593,0.940741 -0.0686,0 -0.117592,-0.391975 -0.117592,-0.940741 z m 0.901543,0.862346 c -0.04312,-0.04312 -0.0784,-0.465442 -0.0784,-0.9385 0,-0.826886 0.01174,-0.863052 0.303934,-0.936388 0.382796,-0.09608 0.769073,0.221757 0.543572,0.447258 -0.110873,0.110873 -0.141951,0.100939 -0.141951,-0.04537 0,-0.221607 -0.256147,-0.344886 -0.457732,-0.2203 -0.09401,0.0581 -0.130359,0.344182 -0.106929,0.841667 l 0.0355,0.753644 0.381625,-0.01728 c 0.209895,-0.0095 0.352292,0.03018 0.31644,0.0882 -0.07559,0.122313 -0.680257,0.142881 -0.796059,0.02708 z m 1.293518,0 c -0.04312,-0.04312 -0.0784,-0.133076 -0.0784,-0.199907 0,-0.07273 0.05665,-0.06487 0.141111,0.0196 0.196692,0.196692 0.525829,0.17617 0.607978,-0.03791 0.04154,-0.108254 -0.09669,-0.362086 -0.349708,-0.642142 -0.432914,-0.479184 -0.478071,-0.772153 -0.150781,-0.978237 0.274357,-0.172754 0.575753,-0.01522 0.567095,0.296401 l -0.0075,0.268274 -0.10635,-0.264583 c -0.122734,-0.305347 -0.26215,-0.334669 -0.459665,-0.09668 -0.112042,0.135002 -0.05725,0.258776 0.279583,0.631614 0.442985,0.490331 0.508038,0.710634 0.277821,0.940851 -0.152107,0.152107 -0.593465,0.190486 -0.721235,0.06272 z m 1.317717,-0.116886 c -0.146653,-0.17745 -0.138653,-0.181124 0.08762,-0.04024 0.136953,0.08527 0.335391,0.121895 0.440972,0.08138 0.301919,-0.115857 0.22511,-0.482682 -0.160812,-0.768007 -0.601834,-0.444955 -0.408585,-1.222455 0.251751,-1.012873 0.120241,0.03816 0.218619,0.148976 0.218619,0.246251 0,0.156147 -0.02106,0.155804 -0.179792,-0.0029 -0.208576,-0.208576 -0.525763,-0.128988 -0.525763,0.131924 0,0.09842 0.186326,0.385195 0.414058,0.637267 0.344151,0.380934 0.393087,0.497499 0.289844,0.690409 -0.151713,0.28348 -0.615761,0.303904 -0.836494,0.03682 z m -6.290935,-9.336762 c -0.315278,-0.6704 -1.611769,-3.416924 -2.881092,-6.103387 -1.269323,-2.686462 -2.280322,-4.931485 -2.246664,-4.988938 0.03366,-0.05745 0.500268,-0.07348 1.036912,-0.03561 1.135143,0.08011 1.967244,0.394092 2.495461,0.941632 0.326135,0.338066 1.016165,1.615277 1.726995,3.196582 0.584735,1.300795 1.666572,1.776282 2.834567,1.245842 0.265102,-0.120394 0.587691,-0.370586 0.716865,-0.555982 0.129174,-0.185395 0.675379,-1.31604 1.21379,-2.512545 0.965215,-2.144989 1.173915,-2.54525 1.173915,-2.251428 0,0.121877 -5.117885,11.592026 -5.406851,12.117777 -0.06135,0.11162 -0.276025,-0.229181 -0.663898,-1.053948 z m 8.950912,0.906472 c -0.641448,-0.298707 -1.287943,-0.953877 -1.542558,-1.563257 -0.12383,-0.296365 -0.161679,-1.141322 -0.161679,-3.609343 v -3.222391 l 0.524494,0.09799 c 0.653715,0.122127 1.359523,0.559643 1.769103,1.09663 0.57434,0.752998 0.646218,1.253189 0.646218,4.49695 v 2.979922 l -0.32338,-0.0011 c -0.177859,-6.31e-4 -0.588348,-0.124538 -0.912198,-0.275348 z m -1.080487,-9.948884 c -1.442568,-0.87959 -0.890442,-2.94411 0.787361,-2.94411 1.690275,0 2.245882,2.054851 0.794825,2.939571 -0.486223,0.296454 -1.100542,0.298216 -1.582186,0.0045 z"
         id="path7" /><path
         style="fill:#441400;fill-opacity:1"
         d="m 32.797904,57.998823 c -0.275298,-0.09744 -0.732933,-0.409553 -1.016966,-0.693586 -0.884173,-0.884173 -0.89314,-0.948784 -0.89314,-6.435459 v -4.813436 l 0.440972,0.08162 c 0.643828,0.119171 1.186972,0.404409 1.648058,0.865494 0.728405,0.728406 0.785658,0.982713 0.850785,3.77904 l 0.0588,2.52452 2.098305,-1.915721 c 1.154068,-1.053646 2.132847,-1.881179 2.175065,-1.838962 0.04222,0.04222 -0.134728,0.267444 -0.393213,0.500503 -0.258484,0.233059 -0.779383,0.707045 -1.157553,1.053303 l -0.687581,0.62956 1.47227,2.670861 c 0.809749,1.468973 1.616685,2.928514 1.793191,3.243424 l 0.32092,0.572564 -1.223202,-0.04976 c -1.972172,-0.08023 -2.413568,-0.420634 -3.651163,-2.815734 l -0.747039,-1.445733 -0.03205,2.141616 c -0.03638,2.431074 0.02015,2.326943 -1.056454,1.945887 z m 7.188262,-0.186446 c 0.510055,-1.18508 5.291023,-11.684457 5.351722,-11.752798 0.03993,-0.04495 1.359402,2.645809 2.932166,5.979472 1.572765,3.333662 2.829097,6.09168 2.791849,6.128928 -0.132935,0.132935 -1.517852,-0.205615 -2.258035,-0.551989 -1.158521,-0.542137 -1.88653,-1.351025 -2.729604,-3.032852 -0.79012,-1.576188 -1.163806,-1.978981 -1.944606,-2.096069 -0.679915,-0.101959 -1.502538,0.249552 -1.825029,0.779846 -0.12711,0.209015 -0.691967,1.40324 -1.255238,2.653833 -0.563271,1.250593 -1.069936,2.273805 -1.125921,2.273805 -0.05598,0 -0.02777,-0.171979 0.0627,-0.382176 z m 13.651967,-0.205519 c -0.605428,-0.299689 -0.878234,-0.7623 -0.877673,-1.488319 5.51e-4,-0.715362 0.33335,-1.289105 0.880302,-1.517636 1.163214,-0.486022 2.367131,0.178772 2.490716,1.375356 0.07274,0.704233 -0.242075,1.26037 -0.906233,1.600933 -0.6353,0.325765 -0.976069,0.332135 -1.587112,0.02967 z M 43.024417,45.36902 c -1.131685,-0.239554 -1.585157,-1.748019 -0.778574,-2.58991 0.557522,-0.581927 1.338197,-0.666918 2.147495,-0.233795 0.568045,0.304008 0.797122,1.471552 0.415484,2.117613 -0.33857,0.573154 -1.06133,0.859151 -1.784405,0.706092 z M 46.3821,45.192883 c -0.65893,-0.357532 -0.936696,-1.545488 -0.512675,-2.192626 0.370077,-0.564808 0.82966,-0.749614 1.736897,-0.698437 0.801984,0.04524 1.435124,1.130044 1.172039,2.008141 -0.20915,0.698084 -0.719748,1.068067 -1.466021,1.062292 -0.334586,-0.0026 -0.753194,-0.08331 -0.93024,-0.17937 z m -7.027635,-9.462205 c 0,-1.037988 0.07837,-1.153152 0.639526,-0.9398 0.284834,0.108293 0.320058,0.173768 0.271453,0.504568 -0.03072,0.209069 -0.0047,0.492495 0.05785,0.629835 0.184466,0.405121 -0.07361,0.749828 -0.561392,0.749828 h -0.407436 z m 0.764352,0.415264 c 0,-0.276314 -0.05735,-0.360922 -0.264584,-0.390354 -0.232796,-0.03306 -0.264583,0.01384 -0.264583,0.390354 0,0.37652 0.03179,0.423417 0.264583,0.390355 0.207236,-0.02943 0.264584,-0.11404 0.264584,-0.390355 z m 0,-0.881944 c 0,-0.215341 -0.07078,-0.304033 -0.264584,-0.331558 -0.226172,-0.03212 -0.264583,0.01601 -0.264583,0.331558 0,0.315546 0.03841,0.36368 0.264583,0.331558 0.193807,-0.02753 0.264584,-0.116217 0.264584,-0.331558 z m 0.654717,1.360323 c -0.01332,-0.183442 0.487662,-1.962234 0.538368,-1.911527 0.02604,0.02604 0.151888,0.424621 0.279672,0.885745 0.238796,0.861722 0.299863,1.340456 0.111078,0.870783 -0.06851,-0.170454 -0.205892,-0.264583 -0.38615,-0.264583 -0.173961,0 -0.32807,0.100084 -0.407405,0.264583 -0.07018,0.145521 -0.131185,0.21527 -0.135563,0.154999 z m 0.741147,-0.860555 c -0.180874,-0.744882 -0.230002,-0.774763 -0.35753,-0.217462 -0.120347,0.525914 -0.116037,0.540842 0.156146,0.540842 0.245995,0 0.270394,-0.03918 0.201384,-0.32338 z m 0.857994,0.832948 c -0.04312,-0.04312 -0.0784,-0.133076 -0.0784,-0.199907 0,-0.07273 0.05665,-0.06487 0.141112,0.0196 0.199475,0.199476 0.558776,0.175116 0.642695,-0.04357 0.04503,-0.117345 -0.08495,-0.344257 -0.356468,-0.622319 -0.477738,-0.489249 -0.537349,-0.772142 -0.200672,-0.952326 0.281422,-0.150613 0.596482,-0.04134 0.596482,0.206886 0,0.152001 -0.03012,0.145092 -0.163664,-0.03754 -0.139056,-0.190169 -0.192099,-0.200224 -0.352778,-0.06687 -0.27253,0.22618 -0.238858,0.339368 0.22246,0.747788 0.428751,0.379587 0.510094,0.64592 0.270463,0.885551 -0.152107,0.152107 -0.593465,0.190486 -0.721234,0.06272 z m 1.332716,-0.862346 c 0,-0.548765 0.049,-0.94074 0.117592,-0.94074 0.0686,0 0.117593,0.391975 0.117593,0.94074 0,0.548766 -0.049,0.940741 -0.117593,0.940741 -0.0686,0 -0.117592,-0.391975 -0.117592,-0.940741 z m 0.901543,0.862346 c -0.16063,-0.16063 -0.08405,-1.652007 0.09235,-1.798403 0.218716,-0.181519 0.652402,-0.04717 0.652402,0.202105 0,0.16871 -0.01747,0.167042 -0.150093,-0.01432 -0.09596,-0.131235 -0.225011,-0.176516 -0.35782,-0.125552 -0.174853,0.0671 -0.202276,0.20303 -0.173287,0.858946 0.03354,0.758961 0.04263,0.779131 0.349034,0.775281 0.173027,-0.0022 0.288966,0.03751 0.257644,0.08819 -0.06941,0.112315 -0.56157,0.122414 -0.670231,0.01375 z m 1.293518,0 c -0.04312,-0.04312 -0.0784,-0.133076 -0.0784,-0.199907 0,-0.07273 0.05665,-0.06487 0.141111,0.0196 0.199476,0.199476 0.558777,0.175116 0.642696,-0.04357 0.04503,-0.117345 -0.08495,-0.344257 -0.356468,-0.622319 -0.477738,-0.489249 -0.537349,-0.772142 -0.200672,-0.952326 0.281422,-0.150613 0.596481,-0.04134 0.596481,0.206886 0,0.152001 -0.03012,0.145092 -0.163664,-0.03754 -0.139055,-0.190169 -0.192099,-0.200224 -0.352777,-0.06687 -0.266168,0.2209 -0.242662,0.301952 0.22246,0.767073 0.436448,0.436449 0.499222,0.637507 0.270463,0.866266 -0.152107,0.152107 -0.593465,0.190486 -0.721235,0.06272 z m 1.411403,-0.007 c -0.03361,-0.05439 0.08045,-0.09711 0.253479,-0.09493 0.472912,0.0059 0.488465,-0.427258 0.02713,-0.755755 -0.390946,-0.278378 -0.475901,-0.702223 -0.188553,-0.940701 0.218717,-0.181519 0.652402,-0.04717 0.652402,0.202105 0,0.162896 -0.02341,0.158926 -0.159384,-0.02703 -0.19203,-0.262616 -0.546171,-0.167087 -0.546171,0.147329 0,0.119282 0.161093,0.371212 0.357984,0.559846 0.458054,0.438844 0.446481,0.917503 -0.0235,0.97189 -0.171751,0.01988 -0.339776,-0.0084 -0.37339,-0.06275 z M 41.012002,27.301536 C 40.742786,26.73319 39.449301,23.992762 38.137589,21.211697 l -2.38493,-5.056481 1.055232,-0.03406 c 0.936599,-0.03023 1.125235,1.91e-4 1.677912,0.270591 0.849979,0.415856 1.135365,0.792531 2.053834,2.710817 1.054512,2.202419 1.621507,2.687578 2.898697,2.480319 0.783746,-0.127184 1.197058,-0.60496 1.940562,-2.24323 1.286364,-2.834433 1.503586,-3.280342 1.567072,-3.216855 0.04902,0.04902 -5.27659,12.030044 -5.413293,12.178273 -0.01715,0.0186 -0.251457,-0.431191 -0.520673,-0.999537 z m 9.277812,0.914642 C 49.419247,27.951363 48.799459,27.403513 48.418609,26.56216 48.197024,26.072647 48.178881,25.797278 48.176492,22.887392 l -0.0026,-3.145602 h 0.331692 c 0.536327,0 1.56809,0.595076 1.979126,1.141472 0.542496,0.721152 0.628997,1.349287 0.628997,4.567557 v 2.87523 l -0.264584,-0.01011 c -0.14552,-0.0056 -0.397217,-0.05045 -0.559326,-0.09976 z M 48.928287,18.169661 c -0.836856,-0.37854 -1.156795,-1.24971 -0.775512,-2.111663 0.277343,-0.626978 0.72213,-0.902531 1.455804,-0.901893 2.023876,0.0018 2.142516,2.902903 0.127912,3.127893 -0.244999,0.02736 -0.60869,-0.02409 -0.808204,-0.114337 z"
         id="path6" /><path
         style="fill:#441400;fill-opacity:1"
         d="m 32.940166,58.038616 c -0.991632,-0.382073 -1.662404,-1.090099 -1.92344,-2.030265 -0.08199,-0.295298 -0.127851,-2.153776 -0.128272,-5.198061 l -6.56e-4,-4.738431 0.440972,0.07831 c 1.072012,0.190381 2.008307,0.997704 2.362599,2.03716 0.08526,0.250153 0.136244,1.273188 0.136244,2.734028 0,1.283867 0.0299,2.334304 0.06645,2.334304 0.03655,0 0.962501,-0.820208 2.057672,-1.822685 1.095171,-1.002477 2.057455,-1.821815 2.13841,-1.820751 0.141049,0.0019 -0.964697,1.079691 -1.763691,1.719175 -0.210196,0.168233 -0.382175,0.343867 -0.382175,0.390297 0,0.07333 2.175592,4.060596 3.202572,5.869444 l 0.358431,0.631313 -1.221937,-0.04972 c -1.971946,-0.08023 -2.44234,-0.444381 -3.664651,-2.836938 l -0.732286,-1.433379 -0.03205,2.146065 c -0.03187,2.13417 -0.0335,2.146015 -0.293981,2.137119 -0.144062,-0.0049 -0.423157,-0.07107 -0.620211,-0.146991 z m 6.920623,0.06774 c 0.02741,-0.04851 1.25652,-2.760486 2.731359,-6.026621 1.474839,-3.266134 2.712308,-5.973961 2.74993,-6.017393 0.03762,-0.04343 1.353574,2.648968 2.924335,5.983113 1.570762,3.334144 2.827093,6.090917 2.791849,6.126162 -0.137336,0.137336 -1.570557,-0.227873 -2.29639,-0.585158 -1.166248,-0.574076 -1.856552,-1.345471 -2.687608,-3.003324 -0.94239,-1.879948 -1.499452,-2.31784 -2.669414,-2.098354 -0.77183,0.144796 -1.188047,0.73956 -2.334999,3.33665 -0.576422,1.305216 -1.095482,2.373119 -1.153468,2.373119 -0.05799,0 -0.083,-0.03969 -0.05559,-0.08819 z m 14.011944,-0.386017 c -0.196458,-0.05914 -0.510577,-0.267626 -0.698044,-0.463299 -0.451742,-0.471517 -0.552031,-1.510533 -0.199851,-2.070513 0.80006,-1.272126 2.883959,-0.839024 3.13582,0.651726 0.207789,1.229893 -1.00798,2.25235 -2.237925,1.882086 z M 42.484177,45.131393 c -0.663922,-0.522242 -0.844484,-1.391146 -0.430257,-2.070497 0.322938,-0.529633 0.732233,-0.760941 1.34647,-0.760941 0.986629,0 1.598519,0.616162 1.598519,1.609678 0,0.487042 -0.05536,0.609619 -0.456536,1.010792 -0.419297,0.419296 -0.509126,0.456536 -1.101271,0.456536 -0.475764,0 -0.726554,-0.06436 -0.956925,-0.245568 z m 3.897923,0.06149 c -0.931391,-0.505368 -0.916177,-2.208729 0.02407,-2.69495 0.189721,-0.09811 0.61745,-0.17838 0.950509,-0.17838 0.529069,0 0.654895,0.04933 0.996103,0.390541 1.036541,1.036541 0.3549,2.674882 -1.107607,2.662159 -0.297646,-0.0026 -0.68603,-0.08331 -0.863076,-0.17937 z M 39.491825,35.70497 c 0.01087,-0.533576 0.04053,-0.771701 0.0659,-0.529167 0.03607,0.344815 0.09667,0.440973 0.277904,0.440973 0.298721,0 0.419756,-0.318841 0.233968,-0.616335 -0.117699,-0.188465 -0.115649,-0.222685 0.01084,-0.181 0.209677,0.0691 0.266963,0.533965 0.09181,0.745011 -0.08205,0.09886 -0.09156,0.169916 -0.02274,0.169916 0.170816,0 0.244021,0.377575 0.131946,0.680543 -0.07035,0.190166 -0.192223,0.260198 -0.452821,0.260198 h -0.356567 z m 0.626992,0.440972 c 0,-0.276314 -0.05735,-0.360922 -0.264584,-0.390354 -0.232796,-0.03306 -0.264583,0.01384 -0.264583,0.390354 0,0.37652 0.03179,0.423417 0.264583,0.390355 0.207236,-0.02943 0.264584,-0.11404 0.264584,-0.390355 z m 0.720231,0.176389 c 0.04105,-0.226365 0.1219,-0.517407 0.179673,-0.646759 0.08387,-0.18777 0.09219,-0.16999 0.0413,0.08819 -0.05634,0.285855 -0.02845,0.32338 0.240404,0.32338 0.234558,0 0.290159,-0.04708 0.24301,-0.205787 -0.03363,-0.113183 -0.09868,-0.362608 -0.144567,-0.554278 -0.07368,-0.307763 -0.09398,-0.321507 -0.173708,-0.117593 -0.05891,0.150666 -0.09252,0.169607 -0.09674,0.05451 -0.0036,-0.09701 0.0428,-0.254281 0.103002,-0.349482 0.130619,-0.206542 0.139038,-0.188203 0.411111,0.895622 0.199674,0.795417 0.224561,1.068291 0.06012,0.659184 -0.07153,-0.177953 -0.205087,-0.264583 -0.40791,-0.264583 -0.200442,0 -0.339914,0.08872 -0.415943,0.264583 -0.09124,0.211055 -0.09928,0.181316 -0.03975,-0.146991 z m 1.515122,0.236956 c -0.04436,-0.07178 0.06411,-0.08868 0.285231,-0.04446 0.557546,0.111509 0.590758,-0.215601 0.07936,-0.781655 -0.478698,-0.529861 -0.527124,-0.758747 -0.197817,-0.934986 0.281422,-0.150613 0.596482,-0.04134 0.596482,0.206886 0,0.152001 -0.03012,0.145092 -0.163664,-0.03754 -0.139056,-0.190169 -0.192099,-0.200224 -0.352778,-0.06687 -0.266168,0.2209 -0.242662,0.301952 0.22246,0.767073 0.436449,0.436449 0.499222,0.637507 0.270463,0.866266 -0.170308,0.170308 -0.640185,0.186371 -0.739739,0.02529 z m 1.509902,-0.824919 c 0,-0.549745 0.02026,-0.774641 0.04501,-0.499768 0.02476,0.274872 0.02476,0.724664 0,0.999537 -0.02476,0.274872 -0.04501,0.04998 -0.04501,-0.499769 z m 0.742862,0.862346 c -0.04312,-0.04312 -0.0784,-0.438131 -0.0784,-0.877807 0,-0.669047 0.03696,-0.819195 0.226666,-0.92072 0.281422,-0.150613 0.596482,-0.04134 0.596482,0.206886 0,0.160068 -0.02112,0.157397 -0.150093,-0.01898 -0.09596,-0.131235 -0.225011,-0.176516 -0.35782,-0.125552 -0.174853,0.0671 -0.202276,0.20303 -0.173287,0.858946 0.03354,0.758961 0.04263,0.779131 0.349034,0.775281 0.173027,-0.0022 0.288966,0.03751 0.257644,0.08819 -0.06941,0.112315 -0.56157,0.122414 -0.670231,0.01375 z m 1.275014,-0.03743 c -0.04436,-0.07178 0.06411,-0.08868 0.28523,-0.04446 0.557546,0.111509 0.590758,-0.215601 0.07936,-0.781655 -0.478698,-0.529861 -0.527124,-0.758747 -0.197817,-0.934986 0.281422,-0.150613 0.596481,-0.04134 0.596481,0.206886 0,0.152001 -0.03012,0.145092 -0.163664,-0.03754 -0.139055,-0.190169 -0.192099,-0.200224 -0.352777,-0.06687 -0.266168,0.2209 -0.242662,0.301952 0.22246,0.767073 0.436448,0.436449 0.499222,0.637507 0.270463,0.866266 -0.170308,0.170308 -0.640185,0.186371 -0.739739,0.02529 z m 1.429907,0.03041 c -0.03361,-0.05439 0.079,-0.09711 0.250249,-0.09493 0.461607,0.0059 0.478451,-0.362485 0.0351,-0.767428 -0.353072,-0.322481 -0.474988,-0.733664 -0.257405,-0.868137 0.05865,-0.03625 0.07804,0.04343 0.04309,0.177048 -0.04425,0.169224 0.0513,0.361427 0.3149,0.633389 0.469305,0.4842 0.463645,0.927705 -0.01254,0.982811 -0.171751,0.01988 -0.339776,-0.0084 -0.37339,-0.06275 z m 0.584344,-1.619684 c -0.03723,-0.09701 -0.01643,-0.176388 0.04621,-0.176388 0.06265,0 0.113902,0.07937 0.113902,0.176388 0,0.09701 -0.0208,0.176389 -0.04622,0.176389 -0.02542,0 -0.07667,-0.07937 -0.113902,-0.176389 z m -9.261711,-12.728741 -2.874528,-6.086073 1.051581,-0.03406 c 0.932714,-0.03021 1.121967,3.78e-4 1.674262,0.270591 0.852973,0.417321 1.123399,0.780188 2.119923,2.844584 0.793313,1.643425 0.904149,1.811767 1.374256,2.087268 0.832384,0.48781 1.904433,0.357554 2.514882,-0.305562 0.143168,-0.155521 0.715914,-1.28682 1.272767,-2.513998 0.556854,-1.227178 1.069275,-2.284149 1.138714,-2.348825 0.08703,-0.08106 0.106959,-0.0628 0.06415,0.0588 -0.0645,0.183196 -5.395979,12.030272 -5.437781,12.083295 -0.01303,0.01653 -1.317232,-2.708678 -2.898222,-6.056018 z m 11.373118,5.84846 c -0.736998,-0.287798 -1.203764,-0.729129 -1.55344,-1.468792 -0.270637,-0.572475 -0.27799,-0.671233 -0.279108,-3.749049 l -0.0011,-3.161085 0.470335,0.06309 c 1.107784,0.148585 2.132549,1.16317 2.35394,2.330555 0.06355,0.335083 0.11554,1.872019 0.11554,3.415413 v 2.806172 l -0.264584,-0.0055 c -0.14552,-0.003 -0.524211,-0.106885 -0.841534,-0.2308 z m -1.069345,-9.917852 c -0.730634,-0.335233 -1.086209,-1.081712 -0.880014,-1.847463 0.43443,-1.613349 2.836968,-1.516588 3.114386,0.12543 0.09374,0.554836 -0.18376,1.213034 -0.657053,1.558459 -0.398139,0.290575 -1.134164,0.366904 -1.577319,0.163574 z"
         id="path5" /><path
         style="fill:#441400;fill-opacity:1"
         d="m 33.121296,58.084682 c -0.837136,-0.254646 -1.498445,-0.803006 -1.92194,-1.59368 -0.245409,-0.458184 -0.253788,-0.616384 -0.28806,-5.438439 l -0.0353,-4.966527 0.388076,0.07153 c 1.014212,0.186944 1.774244,0.736554 2.251981,1.6285 0.232365,0.433829 0.255796,0.678158 0.290364,3.027738 l 0.0376,2.555828 2.057937,-1.87967 c 1.131865,-1.033819 2.118278,-1.87967 2.192028,-1.87967 0.121931,0 -1.206703,1.274001 -1.886904,1.809313 -0.161457,0.127066 -0.258187,0.30287 -0.226453,0.411574 0.03047,0.104369 0.819659,1.565594 1.753759,3.247168 l 1.698363,3.057408 -0.934566,0.03437 c -1.922266,0.0707 -2.61351,-0.421015 -3.798421,-2.701985 l -0.813354,-1.56572 -0.03205,2.146065 c -0.03506,2.34741 -0.003,2.258278 -0.733062,2.036194 z m 6.992373,-0.50749 c 1.633677,-3.655669 5.149517,-11.335619 5.223047,-11.409149 0.05205,-0.05205 1.374131,2.614022 2.937953,5.924608 1.563822,3.310587 2.817513,6.045048 2.78598,6.076582 -0.126886,0.126886 -1.580242,-0.243197 -2.278857,-0.58029 -1.156748,-0.558149 -1.901663,-1.388176 -2.670821,-2.975981 -0.89647,-1.850624 -1.529021,-2.349003 -2.702076,-2.128936 -0.798593,0.149817 -1.092944,0.565153 -2.287356,3.227523 -0.61267,1.365652 -1.152154,2.483004 -1.198854,2.483004 -0.0467,0 0.03924,-0.277812 0.190984,-0.617361 z m 13.836232,0.141993 c -0.633697,-0.142173 -1.094445,-0.689449 -1.160668,-1.378638 -0.07521,-0.782736 0.208959,-1.375339 0.805433,-1.679637 1.18481,-0.604445 2.5056,0.128027 2.501238,1.387115 -0.0043,1.228963 -0.924127,1.945293 -2.146003,1.67116 z M 42.551787,45.145747 c -0.914514,-0.573976 -0.948924,-1.887384 -0.06761,-2.580626 0.394503,-0.310316 1.330149,-0.333442 1.818531,-0.04495 0.789095,0.466129 0.919689,1.746831 0.246747,2.419774 -0.479335,0.479335 -1.409214,0.57513 -1.997668,0.205799 z m 3.843276,0.03322 c -0.930108,-0.577244 -0.923394,-2.197786 0.01111,-2.681035 0.517615,-0.26767 1.306927,-0.227633 1.779746,0.09028 0.911176,0.612645 0.830086,2.116089 -0.141223,2.618373 -0.435763,0.225342 -1.264397,0.211471 -1.649631,-0.02761 z m -6.773777,-8.58535 c 0.114414,-0.02981 0.273164,-0.02785 0.352778,0.0044 0.07961,0.03221 -0.014,0.0566 -0.208025,0.05421 -0.194028,-0.0024 -0.259167,-0.02875 -0.144753,-0.05857 z M 41.7156,36.488921 c 0.0056,-0.136989 0.03351,-0.164853 0.07105,-0.07105 0.03397,0.08489 0.02979,0.186311 -0.0093,0.225386 -0.03907,0.03907 -0.06687,-0.03038 -0.06176,-0.15434 z m 0.650626,0.08987 c -0.03274,-0.05297 0.09582,-0.07352 0.285687,-0.04565 0.541976,0.07954 0.569024,-0.244126 0.06685,-0.799973 -0.46278,-0.512242 -0.480307,-0.560687 -0.297387,-0.821953 0.09699,-0.138534 0.10773,-0.120259 0.05004,0.08516 -0.05584,0.19881 0.02693,0.361931 0.345075,0.680077 0.444707,0.444707 0.504728,0.63024 0.277422,0.857546 -0.160433,0.160433 -0.638044,0.189835 -0.727683,0.0448 z m 2.240708,0.01792 c -0.04312,-0.04312 -0.0784,-0.438131 -0.0784,-0.877807 0,-0.712635 0.02872,-0.81333 0.264583,-0.927629 0.24305,-0.117782 0.247353,-0.114318 0.05287,0.04256 -0.171676,0.138479 -0.205032,0.312049 -0.176389,0.91783 0.03423,0.723861 0.04509,0.746932 0.349917,0.743102 0.173027,-0.0022 0.288966,0.03751 0.257644,0.08819 -0.06941,0.112315 -0.56157,0.122414 -0.670231,0.01375 z m 1.28707,-0.01792 c -0.03274,-0.05297 0.09582,-0.07352 0.285687,-0.04565 0.541976,0.07954 0.569024,-0.244126 0.06685,-0.799973 -0.46278,-0.512242 -0.480308,-0.560687 -0.297387,-0.821953 0.09699,-0.138534 0.10773,-0.120259 0.05004,0.08516 -0.05584,0.19881 0.02693,0.361931 0.345074,0.680077 0.444707,0.444707 0.504729,0.63024 0.277423,0.857546 -0.160434,0.160433 -0.638044,0.189835 -0.727683,0.0448 z m 1.408459,-0.0043 c -0.0342,-0.05533 0.06851,-0.07562 0.228245,-0.04509 0.159733,0.03054 0.290423,0.07581 0.290423,0.100605 0,0.09099 -0.458451,0.04192 -0.518668,-0.05552 z m -7.115567,-0.203175 c 0.0056,-0.136989 0.03351,-0.164853 0.07105,-0.07104 0.03397,0.08489 0.02979,0.18631 -0.0093,0.225385 -0.03907,0.03907 -0.06687,-0.03038 -0.06176,-0.15434 z m 7.767842,-0.05639 c -0.0088,-0.165788 -0.17473,-0.453439 -0.368792,-0.639362 -0.347721,-0.333138 -0.454584,-0.687552 -0.246152,-0.81637 0.05865,-0.03625 0.07804,0.04343 0.04309,0.177048 -0.04425,0.169224 0.0513,0.361427 0.3149,0.633389 0.270172,0.278747 0.363346,0.470005 0.325698,0.668558 -0.05162,0.272224 -0.05307,0.271731 -0.06875,-0.02326 z m -7.07157,-0.176298 c 0,-0.08364 0.118639,-0.11379 0.30649,-0.07788 0.188144,0.03597 0.346371,-0.0044 0.409773,-0.104501 0.08368,-0.132141 0.103626,-0.12648 0.105085,0.02983 0.0012,0.133413 -0.125155,0.207743 -0.409774,0.240971 -0.261542,0.03053 -0.411574,-0.0017 -0.411574,-0.08842 z m -0.73908,-0.204426 c -0.04451,-0.115989 -0.213924,-0.20568 -0.403757,-0.213755 l -0.32707,-0.01391 0.352778,-0.07504 c 0.389365,-0.08282 0.559883,-0.545194 0.274872,-0.745337 -0.125465,-0.0881 -0.121599,-0.100824 0.01911,-0.06288 0.220678,0.0595 0.297198,0.518285 0.121712,0.729733 -0.09762,0.117621 -0.0954,0.170524 0.0086,0.205194 0.07708,0.02569 0.115455,0.120766 0.08528,0.211276 -0.04272,0.128157 -0.07182,0.120353 -0.131541,-0.03528 z m 0.865957,-0.268437 c 0.0056,-0.136989 0.03351,-0.164853 0.07105,-0.07105 0.03397,0.08489 0.02979,0.186311 -0.0093,0.225386 -0.03908,0.03908 -0.06687,-0.03038 -0.06176,-0.15434 z m 0.47037,-0.117593 c 0.0056,-0.136989 0.03351,-0.164853 0.07104,-0.07105 0.03397,0.08489 0.02979,0.186311 -0.0093,0.225386 -0.03908,0.03907 -0.06687,-0.03038 -0.06176,-0.15434 z m -0.352778,-0.352778 c 0.0056,-0.136988 0.03351,-0.164853 0.07105,-0.07104 0.03397,0.08489 0.02979,0.18631 -0.0093,0.225386 -0.03908,0.03908 -0.06687,-0.03038 -0.06176,-0.154341 z m 1.881482,-0.235185 c 0.0056,-0.136989 0.03351,-0.164853 0.07105,-0.07104 0.03397,0.08489 0.02979,0.18631 -0.0093,0.225385 -0.03908,0.03908 -0.06687,-0.03038 -0.06176,-0.15434 z m 3.527777,0 c 0.0056,-0.136989 0.03351,-0.164853 0.07105,-0.07104 0.03397,0.08489 0.02979,0.18631 -0.0093,0.225385 -0.03907,0.03908 -0.06687,-0.03038 -0.06176,-0.15434 z m 1.350592,-0.01453 c -0.06382,-0.167593 -0.05031,-0.1811 0.06583,-0.06583 0.08037,0.07977 0.116495,0.174653 0.08029,0.210859 -0.0362,0.0362 -0.101958,-0.02906 -0.146118,-0.145031 z M 38.67084,22.294807 c -1.564284,-3.31835 -2.844153,-6.070498 -2.844153,-6.115883 0,-0.160297 1.840971,-0.08205 2.378468,0.101097 0.959235,0.326845 1.314345,0.758738 2.362882,2.873792 0.867193,1.749258 1.008198,1.966135 1.432261,2.202927 0.81112,0.452919 1.904622,0.301963 2.50067,-0.345213 0.146527,-0.159095 0.721012,-1.290394 1.276635,-2.513998 0.555624,-1.223604 1.065298,-2.277651 1.132609,-2.342327 0.180479,-0.173412 0.219302,-0.262561 -2.560483,5.87963 -1.404986,3.104444 -2.617568,5.790445 -2.694628,5.968892 -0.132806,0.30754 -0.288316,0.01005 -2.984261,-5.708917 z m 11.502143,5.850537 C 49.442581,27.91855 48.78361,27.33741 48.45387,26.629276 48.183828,26.049347 48.176175,25.946212 48.175058,22.871894 l -0.0011,-3.161085 0.482215,0.06468 c 1.122993,0.150625 2.100317,1.163212 2.338024,2.422384 0.06577,0.348377 0.119576,1.869731 0.119576,3.380787 0,3.094278 0.07749,2.882853 -0.940741,2.566685 z m -1.123609,-9.940301 c -0.733062,-0.213048 -1.160239,-1.021168 -0.982943,-1.859497 0.297356,-1.406022 2.366955,-1.607503 2.950951,-0.287283 0.400229,0.904785 -0.03445,1.899161 -0.940152,2.150713 -0.496347,0.137857 -0.540568,0.137687 -1.027856,-0.0039 z"
         id="path4" /><path
         style="fill:#441400;fill-opacity:1"
         d="M 33.026806,58.02062 C 32.363911,57.813705 31.813725,57.428956 31.47607,56.936181 30.935911,56.14787 30.887798,55.639224 30.887798,50.716979 V 46.11288 l 0.527556,0.09856 c 0.68307,0.127611 1.09072,0.346701 1.546548,0.831184 0.760694,0.808515 0.797817,0.969992 0.864077,3.75856 l 0.06043,2.543203 2.044726,-1.867046 c 1.124599,-1.026875 2.097981,-1.867045 2.163071,-1.867045 0.10434,0 -0.383887,0.472341 -1.797149,1.738674 l -0.411574,0.368785 0.370078,0.680761 c 0.203542,0.374419 1.006422,1.831699 1.784178,3.2384 l 1.4141,2.557639 h -0.910288 c -2.01485,0 -2.66379,-0.471228 -3.88655,-2.822222 l -0.825664,-1.5875 -0.0019,2.204861 c -0.0014,1.688753 -0.03627,2.20302 -0.148853,2.196995 -0.08084,-0.0043 -0.375062,-0.07906 -0.653816,-0.166067 z m 6.898817,-0.03185 c 0.05998,-0.113183 1.282749,-2.798704 2.717256,-5.967824 1.434506,-3.16912 2.647383,-5.802401 2.695282,-5.851735 0.0479,-0.04933 1.366524,2.61902 2.930278,5.929674 1.563754,3.310655 2.822697,6.039865 2.797651,6.064911 -0.117957,0.117957 -1.619226,-0.260898 -2.281421,-0.57573 -1.173991,-0.558161 -1.872417,-1.350791 -2.747118,-3.117652 -0.651465,-1.315933 -0.803528,-1.53734 -1.215031,-1.769105 -0.770412,-0.433908 -1.67675,-0.326066 -2.306343,0.274424 -0.177889,0.169667 -0.772055,1.329603 -1.411111,2.75478 -0.607113,1.353943 -1.145391,2.462239 -1.196174,2.462879 -0.05078,6.41e-4 -0.04325,-0.09144 0.01673,-0.204622 z m 13.661075,-0.415021 c -0.732066,-0.370429 -1.032965,-1.437172 -0.639357,-2.266639 0.423871,-0.893241 1.928517,-1.129621 2.642933,-0.415205 0.762022,0.762023 0.632683,2.11978 -0.251695,2.642195 -0.381901,0.225595 -1.341484,0.247313 -1.751881,0.03965 z M 42.521632,45.110507 c -0.781646,-0.526751 -0.888618,-1.618837 -0.230695,-2.355182 0.31427,-0.351729 0.388512,-0.376975 1.108565,-0.376975 0.709228,0 0.801806,0.03007 1.142987,0.371251 0.515349,0.515349 0.599716,1.330251 0.198787,1.920091 -0.153226,0.225423 -0.409296,0.475998 -0.569045,0.556831 -0.466028,0.235813 -1.205663,0.183826 -1.650599,-0.116016 z m 3.873431,0.06846 c -0.93461,-0.580038 -0.923342,-2.110053 0.01964,-2.667087 0.402992,-0.238053 1.191556,-0.248672 1.62999,-0.02195 0.985919,0.509839 0.995584,2.201814 0.01547,2.708649 -0.449445,0.232417 -1.274673,0.222697 -1.665103,-0.01961 z m -6.773777,-8.58535 c 0.114414,-0.02981 0.273164,-0.02785 0.352778,0.0044 0.07961,0.03221 -0.014,0.0566 -0.208025,0.05421 -0.194028,-0.0024 -0.259167,-0.02875 -0.144753,-0.05857 z M 41.7156,36.488921 c 0.0056,-0.136989 0.03351,-0.164853 0.07105,-0.07105 0.03397,0.08489 0.02979,0.186311 -0.0093,0.225386 -0.03907,0.03907 -0.06687,-0.03038 -0.06176,-0.15434 z m 0.813865,0.1411 c 0,-0.0248 0.13069,-0.07007 0.290422,-0.100605 0.159733,-0.03054 0.262443,-0.01025 0.228246,0.04509 -0.06022,0.09743 -0.518668,0.146506 -0.518668,0.05552 z m 2.234259,0 c 0,-0.0248 0.13069,-0.07007 0.290423,-0.100605 0.159732,-0.03054 0.262443,-0.01025 0.228245,0.04509 -0.06022,0.09743 -0.518668,0.146506 -0.518668,0.05552 z m 1.293518,0 c 0,-0.0248 0.130691,-0.07007 0.290423,-0.100605 0.159733,-0.03054 0.262443,-0.01025 0.228245,0.04509 -0.06022,0.09743 -0.518668,0.146506 -0.518668,0.05552 z m 1.245221,-0.05552 c -0.0342,-0.05533 0.06851,-0.07562 0.228245,-0.04509 0.159733,0.03054 0.290423,0.07581 0.290423,0.100605 0,0.09099 -0.458451,0.04192 -0.518668,-0.05552 z m -2.756305,-0.803797 c -0.0097,-0.465083 0.02207,-0.870211 0.07058,-0.900284 0.04851,-0.03007 0.07307,0.218159 0.0546,0.551625 -0.05992,1.081304 -0.107164,1.212896 -0.125171,0.348659 z m -1.774109,0.0315 -0.404174,-0.47941 0.457091,0.437053 c 0.2514,0.240379 0.433279,0.456113 0.404175,0.47941 -0.02911,0.0233 -0.234796,-0.173377 -0.457092,-0.437053 z m 3.527778,0 -0.404174,-0.47941 0.457091,0.437053 c 0.2514,0.240379 0.433278,0.456113 0.404174,0.47941 -0.0291,0.0233 -0.234795,-0.173377 -0.457091,-0.437053 z m -5.416659,0.31434 c 0,-0.04851 0.185209,-0.08819 0.411574,-0.08819 0.226366,0 0.411574,0.03969 0.411574,0.08819 0,0.04851 -0.185208,0.08819 -0.411574,0.08819 -0.226365,0 -0.411574,-0.03969 -0.411574,-0.08819 z m 6.732176,-0.387432 c -0.380248,-0.432716 -0.478919,-0.744221 -0.27555,-0.86991 0.05865,-0.03625 0.07804,0.04343 0.04309,0.177048 -0.04448,0.17008 0.05339,0.363581 0.326309,0.64516 0.214412,0.221217 0.366999,0.420303 0.339082,0.442412 -0.02792,0.02211 -0.222738,-0.15551 -0.432935,-0.39471 z m -6.605299,-0.06334 c 0.0056,-0.136989 0.03351,-0.164853 0.07105,-0.07105 0.03397,0.08489 0.02979,0.186311 -0.0093,0.225386 -0.03908,0.03908 -0.06687,-0.03038 -0.06176,-0.15434 z m -1.244006,-0.03599 c 0.300812,-0.06545 0.352706,-0.13108 0.352294,-0.445527 -2.65e-4,-0.202822 0.03942,-0.344105 0.08819,-0.313962 0.138791,0.08578 0.103918,0.566612 -0.05243,0.722963 -0.07761,0.07761 -0.276048,0.13485 -0.440972,0.127198 -0.278941,-0.01294 -0.275249,-0.01927 0.05292,-0.09067 z m 3.24308,-0.669566 c 0.0056,-0.136989 0.03351,-0.164853 0.07105,-0.07104 0.03397,0.08489 0.02979,0.18631 -0.0093,0.225385 -0.03908,0.03908 -0.06687,-0.03038 -0.06176,-0.15434 z m 3.527777,0 c 0.0056,-0.136989 0.03351,-0.164853 0.07105,-0.07104 0.03397,0.08489 0.02979,0.18631 -0.0093,0.225385 -0.03907,0.03908 -0.06687,-0.03038 -0.06176,-0.15434 z m 3.732578,-6.798222 C 49.54891,27.967973 48.961682,27.50827 48.558707,26.822745 l -0.326002,-0.55458 -0.03632,-3.27933 -0.03632,-3.27933 0.489633,0.0783 c 0.627069,0.100273 1.049618,0.321557 1.528541,0.800479 0.777544,0.777544 0.812431,0.971528 0.815302,4.533358 0.0014,1.762419 -0.03711,3.200827 -0.08561,3.196461 -0.04851,-0.0044 -0.335815,-0.07461 -0.638463,-0.156103 z m -9.300155,-1.011886 c -0.287261,-0.614421 -1.561869,-3.321788 -2.832463,-6.016372 -1.270593,-2.694583 -2.310169,-4.930312 -2.310169,-4.968287 0,-0.15135 1.86657,-0.05985 2.385402,0.116934 0.918237,0.312875 1.394787,0.900731 2.356888,2.907374 0.989817,2.064452 1.234922,2.324439 2.272498,2.410483 0.752647,0.06242 1.21968,-0.109388 1.659694,-0.610537 0.178379,-0.203162 0.767451,-1.347579 1.309049,-2.543148 0.541597,-1.195569 1.035316,-2.226678 1.097152,-2.291354 0.06184,-0.06468 0.03531,0.06762 -0.05895,0.293981 -0.270163,0.648823 -5.03291,11.196577 -5.203595,11.524074 -0.148852,0.285606 -0.168098,0.262153 -0.67551,-0.823148 z m 8.271547,-8.905653 c -0.732207,-0.136471 -1.18455,-0.746387 -1.18455,-1.597186 0,-0.919078 0.770683,-1.567868 1.733518,-1.459343 0.953599,0.107485 1.577928,1.051208 1.318064,1.992359 -0.128911,0.466876 -0.705301,1.032786 -1.051912,1.032786 -0.1191,0 -0.287019,0.01903 -0.373154,0.04228 -0.08613,0.02326 -0.285019,0.01835 -0.441966,-0.0109 z"
         id="path3" /><path
         style="fill:#441400;fill-opacity:1"
         d="m 33.20643,58.066192 c -0.619928,-0.145976 -1.022037,-0.375033 -1.460126,-0.831745 -0.798708,-0.83266 -0.795782,-0.811026 -0.836211,-6.183644 l -0.0365,-4.850694 0.389279,0.0026 c 0.855696,0.0057 1.872148,0.760623 2.292245,1.70251 0.172075,0.385806 0.220714,0.917456 0.270543,2.95717 l 0.06075,2.486798 2.057871,-1.868585 c 1.131828,-1.027722 2.099121,-1.868969 2.149538,-1.869438 0.05042,-4.69e-4 -0.412603,0.459827 -1.028935,1.022879 -0.616332,0.563052 -1.120603,1.071861 -1.120603,1.130687 0,0.05882 0.767291,1.49436 1.705092,3.190077 0.937801,1.695717 1.705093,3.118366 1.705093,3.161443 0,0.125084 -1.460304,0.09051 -2.115934,-0.0501 -1.040082,-0.223058 -1.469382,-0.666711 -2.496984,-2.580467 l -0.913271,-1.700834 -3.32e-4,2.204861 c -1.82e-4,1.212674 -0.04002,2.199546 -0.08853,2.193049 -0.04851,-0.0065 -0.288352,-0.05894 -0.532989,-0.116549 z m 9.349707,-5.839463 c 1.486618,-3.282303 2.738481,-6.006338 2.781917,-6.053412 0.04344,-0.04707 1.343301,2.59876 2.888588,5.87963 1.545287,3.280869 2.828229,6.00177 2.850982,6.046446 0.02275,0.04468 -0.158253,0.0532 -0.402237,0.01894 -2.212213,-0.310608 -3.440639,-1.285603 -4.647825,-3.688949 -0.637039,-1.26826 -0.79718,-1.497874 -1.205042,-1.727818 -0.845283,-0.476553 -1.82228,-0.312459 -2.426039,0.407472 -0.153225,0.182707 -0.75484,1.40058 -1.336924,2.706383 -0.582083,1.305804 -1.09164,2.3753 -1.132348,2.376658 -0.04071,0.0014 1.142309,-2.683051 2.628928,-5.965354 z m 10.944546,5.273953 c -0.94832,-0.595666 -0.99179,-1.989027 -0.08432,-2.702841 0.461774,-0.363231 1.028183,-0.428513 1.651744,-0.190373 0.690301,0.263628 0.983479,0.728491 0.98407,1.56034 3.83e-4,0.538806 -0.05072,0.674915 -0.394093,1.049597 -0.353913,0.386186 -0.465899,0.435103 -1.087731,0.475128 -0.544917,0.03507 -0.77373,-0.006 -1.069666,-0.191851 z M 42.517456,45.108544 c -0.256904,-0.172581 -0.461249,-0.445485 -0.572328,-0.764352 -0.151956,-0.436205 -0.151956,-0.555665 0,-0.99187 0.22023,-0.632196 0.786179,-1.033436 1.454273,-1.031035 0.621308,0.0022 0.997637,0.198264 1.331395,0.693527 0.937193,1.3907 -0.805659,3.039368 -2.21334,2.09373 z m 4.068953,0.15623 c -0.496612,-0.205412 -0.801563,-0.683995 -0.856281,-1.343829 -0.0491,-0.592059 -0.02558,-0.664201 0.350322,-1.074375 0.338517,-0.369387 0.497396,-0.448774 0.993548,-0.496448 1.050604,-0.10095 1.687874,0.466727 1.687874,1.50355 0,0.611291 -0.290486,1.114154 -0.776957,1.345 -0.40603,0.192674 -1.022102,0.221793 -1.398506,0.0661 z m -6.965123,-8.671156 c 0.114414,-0.02981 0.273164,-0.02785 0.352778,0.0044 0.07961,0.03221 -0.014,0.0566 -0.208025,0.05421 -0.194028,-0.0024 -0.259167,-0.02875 -0.144753,-0.05857 z m 3.143364,0.03528 c 0,-0.02542 0.08212,-0.07773 0.182496,-0.116246 0.104649,-0.04016 0.15185,-0.02044 0.110653,0.04622 -0.06906,0.111737 -0.293149,0.165271 -0.293149,0.07003 z m 2.087268,-0.03166 c 0.08085,-0.03262 0.213137,-0.03262 0.293982,0 0.08085,0.03262 0.0147,0.05931 -0.146991,0.05931 -0.16169,0 -0.227836,-0.02669 -0.146991,-0.05931 z m 1.44051,0.03166 c 0,-0.02542 0.08212,-0.07773 0.182496,-0.116246 0.104649,-0.04016 0.15185,-0.02044 0.110653,0.04622 -0.06906,0.111737 -0.293149,0.165271 -0.293149,0.07003 z m 1.000369,-0.07003 c -0.0412,-0.06666 0.006,-0.08637 0.110653,-0.04622 0.203719,0.07818 0.240992,0.162461 0.07184,0.162461 -0.06086,0 -0.142982,-0.05231 -0.182496,-0.116246 z m -6.409629,-0.442319 c 0,-0.04851 0.185209,-0.08819 0.411574,-0.08819 0.226366,0 0.411574,0.03969 0.411574,0.08819 0,0.04851 -0.185208,0.08819 -0.411574,0.08819 -0.226365,0 -0.411574,-0.03969 -0.411574,-0.08819 z m 6.891626,-0.246702 -0.222726,-0.311863 0.274989,0.261317 c 0.151245,0.143725 0.251471,0.284063 0.222726,0.311863 -0.02874,0.0278 -0.15249,-0.08979 -0.274989,-0.261317 z m -8.302737,-0.180923 c 0,-0.025 0.155956,-0.06834 0.346568,-0.09631 0.190612,-0.02798 0.31978,-0.0075 0.287041,0.04545 -0.05827,0.09428 -0.633609,0.140469 -0.633609,0.05087 z m 3.042408,-0.160338 c -0.14627,-0.186508 -0.142111,-0.190667 0.0444,-0.0444 0.113183,0.08876 0.205787,0.181368 0.205787,0.205787 0,0.09678 -0.09657,0.03449 -0.250185,-0.16139 z m 3.527778,0 c -0.14627,-0.186508 -0.142111,-0.190667 0.0444,-0.0444 0.113183,0.08876 0.205788,0.181368 0.205788,0.205787 0,0.09678 -0.09657,0.03449 -0.250185,-0.16139 z m 1.26932,-0.107793 c -0.1062,-0.1062 -0.09949,-0.482647 0.0098,-0.550195 0.04851,-0.02998 0.08819,0.09919 0.08819,0.287041 0,0.187852 -0.0044,0.341549 -0.0098,0.341549 -0.0054,0 -0.04508,-0.03528 -0.08819,-0.0784 z m -7.124667,-0.225386 c 0.0056,-0.136988 0.03351,-0.164853 0.07105,-0.07104 0.03397,0.08489 0.02979,0.18631 -0.0093,0.225386 -0.03907,0.03908 -0.06687,-0.03038 -0.06176,-0.154341 z m 4.341643,-0.159649 c 0,-0.06086 0.05231,-0.142983 0.116245,-0.182497 0.06666,-0.0412 0.08637,0.006 0.04622,0.110653 -0.07818,0.203719 -0.162461,0.240993 -0.162461,0.07184 z m 5.918117,-6.845721 c -0.582373,-0.09948 -1.305798,-0.552466 -1.67087,-1.046253 -0.549743,-0.743566 -0.601877,-1.121175 -0.601877,-4.35938 0,-2.86506 0.0125,-3.042623 0.214237,-3.042623 0.486707,0 1.308163,0.39249 1.762088,0.841922 0.819533,0.811422 0.856948,1.020028 0.819767,4.570641 l -0.03267,3.119508 z M 41.080284,27.371399 C 40.860813,26.893972 39.58897,24.188203 38.253966,21.358578 36.918963,18.528954 35.826687,16.18108 35.826687,16.14108 c 0,-0.04 0.489479,-0.05094 1.087731,-0.02432 0.92621,0.04122 1.181118,0.09939 1.716618,0.391766 0.755416,0.412442 1.05709,0.83314 1.896883,2.645288 0.344682,0.743773 0.747841,1.516847 0.895909,1.717942 0.350485,0.476006 0.947673,0.751502 1.629016,0.751502 1.15565,0 1.541633,-0.430888 2.713574,-3.029268 0.503506,-1.116353 0.933272,-2.011926 0.955035,-1.990162 0.03736,0.03736 -5.097945,11.491436 -5.19603,11.589521 -0.02536,0.02536 -0.225667,-0.344522 -0.445139,-0.82195 z m 7.653668,-9.342405 c -0.675009,-0.366256 -0.915565,-1.598393 -0.432067,-2.213061 0.935676,-1.189519 2.811839,-0.63482 2.811839,0.831337 0,1.003559 -0.563536,1.570301 -1.552262,1.561094 -0.278085,-0.0026 -0.650464,-0.08331 -0.82751,-0.17937 z m -1.971154,-1.690463 c 0,-0.06086 0.05231,-0.142982 0.116246,-0.182497 0.06666,-0.0412 0.08637,0.006 0.04621,0.110653 -0.07817,0.20372 -0.162461,0.240993 -0.162461,0.07184 z"
         id="path2" /><path
         style="fill:#441400;fill-opacity:1"
         d="m 33.278032,58.058641 c -0.672035,-0.114942 -1.109801,-0.360772 -1.56434,-0.878464 -0.774443,-0.882042 -0.761884,-0.786293 -0.803964,-6.129374 l -0.0382,-4.850694 0.272719,6.56e-4 c 0.55491,0.0013 1.138973,0.249864 1.655319,0.70437 0.863571,0.760145 0.948044,1.088197 1.022373,3.9704 l 0.06447,2.499963 1.763889,-1.603085 c 2.216225,-2.014184 2.675545,-2.39629 1.3069,-1.087205 -1.019111,0.974762 -1.056625,1.028682 -0.9217,1.324809 0.07736,0.169781 0.855771,1.601133 1.729808,3.180784 0.874037,1.57965 1.589159,2.90949 1.589159,2.955199 0,0.164955 -2.200563,-0.04564 -2.602435,-0.249051 -0.875594,-0.443196 -1.113757,-0.731085 -1.99228,-2.408244 l -0.873341,-1.667268 -0.0588,2.160573 -0.0588,2.160573 z m 17.07134,0.0058 c -0.389149,-0.05595 -1.082326,-0.286959 -1.545715,-0.515129 -1.188434,-0.585178 -1.923701,-1.419407 -2.766718,-3.139101 -0.772752,-1.576356 -1.084475,-1.87414 -2.045278,-1.953817 -0.866515,-0.07186 -1.461063,0.274804 -1.895981,1.105485 -0.178704,0.341321 -0.338327,0.607173 -0.354718,0.590782 -0.03124,-0.03124 3.413989,-7.666433 3.57612,-7.925266 0.05916,-0.09444 1.063393,1.908901 2.739234,5.464494 2.661461,5.64676 3.065746,6.514698 3.02226,6.488331 -0.01301,-0.0079 -0.341149,-0.05999 -0.729204,-0.115779 z m -10.397086,-0.04627 c 0,-0.06468 0.101397,-0.302801 0.225327,-0.529166 0.12393,-0.226366 0.225327,-0.358658 0.225327,-0.293982 0,0.06468 -0.101397,0.302801 -0.225327,0.529167 -0.12393,0.226365 -0.225327,0.358657 -0.225327,0.293981 z m 13.501281,-0.562398 c -1.090488,-0.732559 -0.780973,-2.566398 0.490963,-2.908895 0.490098,-0.131969 1.174449,-0.01138 1.525516,0.268803 0.628441,0.501559 0.801704,1.657463 0.336998,2.24824 -0.550254,0.699535 -1.628271,0.879024 -2.353477,0.391852 z m -12.913318,-0.73112 c 0,-0.06468 0.101397,-0.302801 0.225327,-0.529167 0.12393,-0.226366 0.225327,-0.358657 0.225327,-0.293981 0,0.06468 -0.101397,0.3028 -0.225327,0.529166 -0.12393,0.226366 -0.225327,0.358658 -0.225327,0.293982 z m 0.587962,-1.293519 c 0,-0.06468 0.101398,-0.302801 0.225328,-0.529166 0.12393,-0.226366 0.225327,-0.358658 0.225327,-0.293982 0,0.06468 -0.101397,0.302801 -0.225327,0.529167 -0.12393,0.226365 -0.225328,0.358657 -0.225328,0.293981 z M 42.700256,45.21166 c -1.003033,-0.436903 -1.111863,-1.998772 -0.1828,-2.623444 0.742545,-0.499264 1.79313,-0.278971 2.251029,0.472007 0.799446,1.311136 -0.616321,2.783863 -2.068229,2.151437 z m 3.744871,-0.05813 c -1.223952,-0.768999 -0.835749,-2.641767 0.580701,-2.801422 1.032886,-0.116421 1.736044,0.50953 1.736044,1.545426 0,0.449798 -0.06634,0.61454 -0.38947,0.967133 -0.32508,0.354724 -0.485469,0.433285 -0.970139,0.475189 -0.441084,0.03814 -0.671166,-0.0067 -0.957136,-0.186326 z m -6.884875,-8.5563 c 0.08085,-0.03262 0.213136,-0.03262 0.293981,0 0.08084,0.03262 0.0147,0.05931 -0.146991,0.05931 -0.161689,0 -0.227835,-0.02669 -0.14699,-0.05931 z m 8.214542,-0.727388 -0.222726,-0.311863 0.274989,0.261317 c 0.151245,0.143725 0.251471,0.284063 0.222726,0.311863 -0.02874,0.0278 -0.15249,-0.08979 -0.274989,-0.261317 z m -7.972008,-0.215803 c 0.08489,-0.03397 0.186311,-0.02979 0.225386,0.0093 0.03908,0.03908 -0.03038,0.06687 -0.15434,0.06176 -0.136989,-0.0056 -0.164853,-0.03351 -0.07105,-0.07105 z m 0.38411,-0.458637 c 0.0056,-0.136988 0.03351,-0.164853 0.07105,-0.07104 0.03397,0.08489 0.02979,0.18631 -0.0093,0.225386 -0.03907,0.03908 -0.06687,-0.03038 -0.06176,-0.154341 z m 1.128018,-7.356425 c -0.0935,-0.217188 -1.366598,-2.927762 -2.829111,-6.023499 -1.462514,-3.095738 -2.659116,-5.655279 -2.659116,-5.687869 0,-0.03259 0.489479,-0.03628 1.087731,-0.0082 1.881441,0.08831 2.395421,0.521813 3.597728,3.034405 1.021135,2.133978 1.364989,2.478769 2.480646,2.487411 0.789823,0.0061 1.379314,-0.304779 1.801735,-0.950234 0.193524,-0.295702 0.322804,-0.458265 0.287288,-0.361251 -0.09881,0.269904 -3.512363,7.814014 -3.557399,7.862015 -0.02173,0.02316 -0.116005,-0.13559 -0.209502,-0.352778 z m 8.561478,0.149441 c -0.583203,-0.264931 -1.126047,-0.795554 -1.42057,-1.388589 -0.199521,-0.401745 -0.226957,-0.78814 -0.259427,-3.653655 l -0.03631,-3.204398 0.271495,0.0011 c 0.843516,0.0036 2.201804,1.108421 2.446771,1.99024 0.06406,0.230593 0.116764,1.781863 0.117124,3.447268 l 6.56e-4,3.02801 -0.323379,-0.0026 c -0.177859,-0.0014 -0.536221,-0.09927 -0.79636,-0.217442 z m -4.633964,-8.187846 c 0,-0.06468 0.07563,-0.249884 0.168055,-0.411574 0.09243,-0.16169 0.168055,-0.241065 0.168055,-0.176389 0,0.06468 -0.07563,0.249885 -0.168055,0.411574 -0.09243,0.16169 -0.168055,0.241065 -0.168055,0.176389 z m 0.471894,-1.058333 c 0,-0.06468 0.101398,-0.302801 0.225328,-0.529167 0.12393,-0.226365 0.225327,-0.358657 0.225327,-0.293981 0,0.06468 -0.101397,0.302801 -0.225327,0.529167 -0.12393,0.226365 -0.225328,0.358657 -0.225328,0.293981 z m 3.032593,-0.727159 c -1.030435,-0.63951 -0.86302,-2.288632 0.276359,-2.722283 0.608191,-0.231479 1.218809,-0.09155 1.699909,0.38955 0.330335,0.330334 0.390541,0.47483 0.390541,0.937306 0,1.030948 -0.552009,1.596481 -1.552262,1.59029 -0.278085,-0.0017 -0.644631,-0.08941 -0.814547,-0.194863 z m -2.446154,-0.56636 c 0,-0.06468 0.07562,-0.249884 0.168055,-0.411574 0.09243,-0.161689 0.168055,-0.241064 0.168055,-0.176388 0,0.06468 -0.07562,0.249884 -0.168055,0.411574 -0.09243,0.161689 -0.168055,0.241064 -0.168055,0.176388 z"
         id="path1" /></g></g></svg>
